#!OML:ASF F:\VICON\USERDATA\INSTALL\rory3\rory3.ASF
:FULLY-SPECIFIED
:DEGREES
156
root 1.80725 18.9878 7.98572 -0.179239 20.4886 -4.00297
lowerback 0.682828 6.33384 -1.18664
upperback -3.1903 8.28393 -8.32807
thorax -2.61536 4.11495 -8.24273
lowerneck -12.3307 -3.85323 -5.96506
upperneck 5.68817 -5.52603 14.8667
head 4.34535 -2.03768 5.1886
rclavicle 1.8159e-013 1.59028e-014
rhumerus 47.3394 -12.9407 -23.3665
rradius 57.1225
rwrist 37.9076
rhand -60.1364 23.6876
rfingers 7.12502
rthumb -32.2817 -3.46142
lclavicle 1.8159e-013 1.59028e-014
lhumerus -29.8504 15.7795 51.9424
lradius 19.7186
lwrist -7.39812
lhand -26.2882 26.1758
lfingers 7.12502
lthumb 0.2674 56.1554
rfemur 11.5675 8.57169 16.1178
rtibia 12.3117
rfoot -9.75632 -32.6133
rtoes -17.4174
lfemur -5.77991 -13.7404 -12.0458
ltibia 17.9194
lfoot -11.5141 13.8974
ltoes -9.42253
157
root 1.81194 18.9882 7.98219 -0.197643 20.3063 -4.08464
lowerback 0.712777 6.3493 -1.05309
upperback -3.19016 8.3068 -8.28913
thorax -2.61582 4.12353 -8.27879
lowerneck -12.3893 -3.80208 -5.91051
upperneck 5.59709 -5.46601 15.0269
head 4.32613 -1.9979 5.23505
rclavicle -1.43373e-014 6.04305e-014
rhumerus 47.1961 -12.6049 -22.6829
rradius 57.4153
rwrist 38.2705
rhand -60.0185 25.0621
rfingers 7.12502
rthumb -32.1695 -2.10974
lclavicle -1.43373e-014 6.04305e-014
lhumerus -29.8389 15.5786 52.0113
lradius 19.9585
lwrist -7.34446
lhand -26.263 25.9161
lfingers 7.12502
lthumb 0.291731 55.8956
rfemur 11.5133 8.59171 16.118
rtibia 12.2945
rfoot -9.63464 -32.4874
rtoes -17.3772
lfemur -5.74267 -13.719 -11.9855
ltibia 17.9183
lfoot -11.6565 13.9792
ltoes -8.93159
158
root 1.81574 18.9878 7.98157 -0.250811 20.1559 -4.07621
lowerback 0.748213 6.35785 -1.04703
upperback -3.14238 8.31933 -8.24599
thorax -2.58961 4.13067 -8.23615
lowerneck -12.4464 -3.79671 -5.89467
upperneck 5.48987 -5.45991 15.1805
head 4.3084 -1.98675 5.28116
rclavicle -1.51573e-014 -1.01778e-013
rhumerus 47.0587 -12.2452 -21.9752
rradius 57.6596
rwrist 38.7105
rhand -59.9913 25.822
rfingers 7.12502
rthumb -32.1435 -1.35502
lclavicle -1.51573e-014 -1.01778e-013
lhumerus -29.8024 15.5156 52.0832
lradius 20.1587
lwrist -7.51936
lhand -26.201 25.9937
lfingers 7.12502
lthumb 0.351589 55.9732
rfemur 11.5395 8.5949 16.0564
rtibia 12.2963
rfoot -9.55991 -32.3447
rtoes -17.4248
lfemur -5.63384 -13.687 -12.041
ltibia 17.9241
lfoot -11.6512 14.1013
ltoes -9.04649
159
root 1.81864 18.9877 7.98138 -0.293625 20.0096 -4.06929
lowerback 0.780053 6.33552 -1.06995
upperback -3.09727 8.28944 -8.17675
thorax -2.57766 4.11653 -8.14932
lowerneck -12.6194 -3.75133 -5.85256
upperneck 5.53111 -5.40794 15.2141
head 4.34452 -1.94942 5.28844
rclavicle -1.43498e-014 1.59028e-014
rhumerus 47.0311 -11.8582 -21.3714
rradius 57.8944
rwrist 39.1469
rhand -59.7601 26.1597
rfingers 7.12502
rthumb -31.9234 -1.06159
lclavicle -1.43498e-014 1.59028e-014
lhumerus -29.7754 15.1659 52.3324
lradius 20.4032
lwrist -7.24064
lhand -26.3952 26.627
lfingers 7.12502
lthumb 0.164083 56.6067
rfemur 11.5719 8.67178 16.0232
rtibia 12.2817
rfoot -9.58255 -32.2672
rtoes -17.2618
lfemur -5.56018 -13.6542 -12.091
ltibia 17.9508
lfoot -11.6102 14.2672
ltoes -9.26914
160
root 1.82202 18.9874 7.97918 -0.292835 19.8741 -4.02319
lowerback 0.817192 6.31275 -1.09196
upperback -3.06608 8.25787 -8.14138
thorax -2.57829 4.10119 -8.10139
lowerneck -12.7806 -3.65445 -5.90264
upperneck 5.59214 -5.28558 15.3839
head 4.38428 -1.87168 5.36177
rclavicle -7.04567e-014 2.8625e-014
rhumerus 47.0095 -11.5019 -20.8094
rradius 58.1224
rwrist 39.3422
rhand -59.7256 27.1875
rfingers 7.12502
rthumb -31.8906 -0.0403705
lclavicle -7.04567e-014 2.8625e-014
lhumerus -29.7169 15.003 52.4749
lradius 20.5538
lwrist -7.25814
lhand -26.3242 26.542
lfingers 7.12502
lthumb 0.232626 56.5216
rfemur 11.557 8.68201 15.922
rtibia 12.2766
rfoot -9.48356 -32.2085
rtoes -17.2945
lfemur -5.52018 -13.6149 -12.1687
ltibia 17.9789
lfoot -11.7145 14.3622
ltoes -9.0093
161
root 1.82441 18.9866 7.97781 -0.325208 19.7809 -4.05126
lowerback 0.83027 6.28203 -1.07421
upperback -3.0069 8.22018 -8.08541
thorax -2.53432 4.08333 -8.04739
lowerneck -12.7841 -3.54166 -5.75554
upperneck 5.41291 -5.13009 15.3641
head 4.30949 -1.79873 5.34269
rclavicle 5.90142e-015 6.67916e-014
rhumerus 46.9745 -11.2095 -20.2126
rradius 58.3066
rwrist 39.7883
rhand -60.2842 26.9403
rfingers 7.12502
rthumb -32.4224 -0.180041
lclavicle 5.90142e-015 6.67916e-014
lhumerus -29.6708 14.6893 52.6347
lradius 20.7758
lwrist -7.21957
lhand -26.2513 25.9153
lfingers 7.12502
lthumb 0.303073 55.8948
rfemur 11.5565 8.66013 15.911
rtibia 12.3056
rfoot -9.46895 -32.095
rtoes -17.2132
lfemur -5.46668 -13.6303 -12.1594
ltibia 17.9942
lfoot -11.8558 14.4185
ltoes -8.72044
